# Blender 3.4.0
# www.blender.org
o Cube
v 1.000000 1.000000 -1.000000
v 1.000000 -1.000000 -1.000000
v 1.000000 1.000000 1.000000
v 1.000000 -1.000000 1.000000
v -1.000000 1.000000 -1.000000
v -1.000000 -1.000000 -1.000000
v -1.000000 1.000000 1.000000
v -1.000000 -1.000000 1.000000
v -1.000000 -0.253567 1.000000
v -1.000000 0.715441 1.000000
v -1.000000 0.727291 -1.000000
v -1.000000 -0.247918 -1.000000
v -0.110789 0.153859 1.000000
v -0.090181 0.156515 -1.000000
vn -0.0000 1.0000 -0.0000
vn -0.0000 -0.0000 1.0000
vn -1.0000 -0.0000 -0.0000
vn -0.0000 -1.0000 -0.0000
vn 1.0000 -0.0000 -0.0000
vn -0.0000 -0.0000 -1.0000
vn -0.5327 -0.8463 -0.0058
vn -0.4113 0.9115 -0.0002
vt 0.625000 0.500000
vt 0.375000 0.500000
vt 0.625000 0.750000
vt 0.375000 0.750000
vt 0.875000 0.500000
vt 0.625000 0.250000
vt 0.125000 0.500000
vt 0.375000 0.250000
vt 0.875000 0.750000
vt 0.625000 1.000000
vt 0.625000 0.000000
vt 0.375000 1.000000
vt 0.375000 0.000000
vt 0.125000 0.750000
vt 0.468304 0.000000
vt 0.468304 1.000000
vt 0.589430 1.000000
vt 0.589430 0.000000
vt 0.590911 0.250000
vt 0.469010 0.250000
vt 0.519232 0.888849
vt 0.519564 0.363727
s 0

f 1/1/1 5/5/1 7/9/1 3/3/1
f 4/4/2 3/3/2 7/10/2 10/17/2 13/21/2 9/16/2 8/12/2
f 8/13/3 9/15/3 12/20/3 6/8/3
f 6/7/4 2/2/4 4/4/4 8/14/4
f 2/2/5 1/1/5 3/3/5 4/4/5
f 6/8/6 12/20/6 14/22/6 11/19/6 5/6/6 1/1/6 2/2/6
f 14/22/7 13/21/7 10/18/7 11/19/7
f 13/21/8 14/22/8 12/20/8 9/16/8
f 11/19/3 10/18/3 7/11/3 5/6/3
